<svg width="512" height="512" viewBox="0 0 512 512" fill="none" xmlns="http://www.w3.org/2000/svg" role="img" aria-labelledby="logoTitle logoDesc">
  <title id="logoTitle">DataByArea logo icon</title>
  <desc id="logoDesc">A dark navy location pin with a glowing cyan upward trend arrow.</desc>
  <defs>
    <filter id="cyanGlow" x="-30%" y="-30%" width="160%" height="160%" color-interpolation-filters="sRGB">
      <feGaussianBlur stdDeviation="12" result="blur"/>
      <feColorMatrix in="blur" type="matrix" values="0 0 0 0 0.059 0 0 0 0 0.737 0 0 0 0 0.914 0 0 0 0.95 0" result="glow"/>
      <feMerge>
        <feMergeNode in="glow"/>
        <feMergeNode in="glow"/>
        <feMergeNode in="SourceGraphic"/>
      </feMerge>
    </filter>
    <linearGradient id="arrowFill" x1="118" y1="338" x2="394" y2="97" gradientUnits="userSpaceOnUse">
      <stop stop-color="#5fd8ff"/>
      <stop offset="0.48" stop-color="#9ff4ff"/>
      <stop offset="1" stop-color="#6fe8ff"/>
    </linearGradient>
    <linearGradient id="pinFill" x1="175" y1="83" x2="330" y2="445" gradientUnits="userSpaceOnUse">
      <stop stop-color="#123b70"/>
      <stop offset="1" stop-color="#061a33"/>
    </linearGradient>
  </defs>

  <path d="M258 486c-11-18-46-56-74-87-47-52-84-105-84-172C100 137 169 68 257 68c55 0 104 27 132 69l-51 51c-15-29-45-48-81-48-51 0-91 39-91 90s40 91 91 91c42 0 77-28 88-66l64-64c7 22 9 44 7 67-6 62-42 109-85 157-26 29-59 64-73 71Z" fill="url(#pinFill)"/>
  <path d="M320 379c-17 8-38 13-63 13-34 0-66-10-92-28l39-39c15 13 34 20 53 20 13 0 27-3 39-9l24 43Z" fill="#061a33"/>

  <g filter="url(#cyanGlow)">
    <path d="M83 348h40l113-113 65 65 116-116-31-31 101-27-27 101-30-30-129 129-65-65-93 93v40H83v-46Z" fill="url(#arrowFill)" stroke="#1389d5" stroke-width="13" stroke-linejoin="round"/>
    <circle cx="105" cy="371" r="28" fill="#55d8ff" stroke="#1389d5" stroke-width="13"/>
    <path d="M126 347l110-110 65 65 116-116" stroke="#d9fbff" stroke-width="10" stroke-linecap="round" stroke-linejoin="round" opacity="0.85"/>
  </g>
</svg>
